<svg width="24" height="24" viewBox="0 0 24 24" fill="none" xmlns="http://www.w3.org/2000/svg">
<path d="M22.4142 20.4152C22.7893 20.0401 23 19.5314 23 19.001V8.00098C23 7.47054 22.7893 6.96184 22.4142 6.58676C22.0391 6.21169 21.5304 6.00098 21 6.00098H17L15 3.00098H9L7 6.00098H3C2.46957 6.00098 1.96086 6.21169 1.58579 6.58676C1.21071 6.96184 1 7.47054 1 8.00098V19.001C1 19.5314 1.21071 20.0401 1.58579 20.4152C1.96086 20.7903 2.46957 21.001 3 21.001H21C21.5304 21.001 22.0391 20.7903 22.4142 20.4152Z" stroke="#333B4D" stroke-width="1.8" stroke-linecap="round" stroke-linejoin="round"/>
<path d="M12 17.001C14.2091 17.001 16 15.2101 16 13.001C16 10.7918 14.2091 9.00098 12 9.00098C9.79086 9.00098 8 10.7918 8 13.001C8 15.2101 9.79086 17.001 12 17.001Z" stroke="#333B4D" stroke-width="1.8" stroke-linecap="round" stroke-linejoin="round"/>
</svg>
