<svg width="25" height="24" viewBox="0 0 25 24" fill="none" xmlns="http://www.w3.org/2000/svg">
<path d="M3.16669 6L6.16669 2H18.1667L21.1667 6V20C21.1667 20.5304 20.956 21.0391 20.5809 21.4142C20.2058 21.7893 19.6971 22 19.1667 22H5.16669C4.63625 22 4.12755 21.7893 3.75247 21.4142C3.3774 21.0391 3.16669 20.5304 3.16669 20V6Z" stroke="#738496" stroke-width="1.8" stroke-linecap="round" stroke-linejoin="round"/>
<path d="M3.16669 6H21.1667" stroke="#738496" stroke-width="1.8" stroke-linecap="round" stroke-linejoin="round"/>
<path d="M16.1667 10C16.1667 11.0609 15.7453 12.0783 14.9951 12.8284C14.245 13.5786 13.2276 14 12.1667 14C11.1058 14 10.0884 13.5786 9.33826 12.8284C8.58811 12.0783 8.16669 11.0609 8.16669 10" stroke="#738496" stroke-width="1.8" stroke-linecap="round" stroke-linejoin="round"/>
</svg>
