<svg width="30" height="29" viewBox="0 0 30 29" fill="none" xmlns="http://www.w3.org/2000/svg">
<path fill-rule="evenodd" clip-rule="evenodd" d="M27.5976 28.0645H23.7304C23.5083 28.0645 23.4962 27.7091 23.4962 27.48V27.1289H28.0664C27.9573 27.3559 27.8931 28.0645 27.5976 28.0645ZM30 13.5673V13.8678C29.9741 14.0573 29.8994 14.2384 29.7775 14.395C29.2531 15.0675 27.9286 14.9678 27.1877 14.9678C26.9503 14.9678 26.7844 14.1185 26.7773 14.0322H26.3086C26.726 14.9006 26.3532 15.0173 27.3237 15.5335C27.8014 15.7874 28.5143 16.1081 28.8732 16.4429C29.4359 16.9686 29.5241 17.1709 29.7428 18.0308C29.8802 18.5724 29.9621 19.1573 30 19.7629V21.4859C29.9196 22.9557 29.6549 24.4269 29.3572 25.6107C29.3006 25.8362 29.246 25.9031 29.1783 26.0753C29.0837 26.3167 29.066 27.1607 28.9349 27.6448C28.8006 28.1408 28.4491 29 27.8322 29H23.3205C22.6511 29 22.5002 27.8544 22.5002 27.1289H7.50017C7.50017 27.8544 7.34887 29 6.67955 29H2.16781C1.55092 29 1.19943 28.1408 1.06512 27.6448C0.969457 27.2908 0.95883 26.9825 0.9039 26.5777C0.77777 25.6453 0.921618 26.3503 0.665081 25.5884C0.306498 24.5234 0.0559828 22.9313 0 21.3639V20.0815C0.02976 19.3128 0.115519 18.5894 0.269287 17.9841C0.686697 16.3428 1.40847 16.1844 2.73475 15.4748C3.72865 14.9427 3.48169 14.5905 3.74991 14.0322H3.22267C3.21628 14.1075 3.05541 14.9678 2.81235 14.9678C2.06399 14.9678 0.684214 15.0583 0.19807 14.3607C0.0914182 14.2073 0.0255153 14.0407 0 13.8703V13.5446C0.0783068 13.0178 0.535036 12.5101 1.35816 12.2888C2.05195 12.1021 3.00369 12.1611 3.87571 12.1643L3.57416 13.0967H3.98448C4.05535 12.246 5.30614 9.96579 6.07682 9.22118C6.69654 8.62257 7.38077 8.71379 8.42108 8.57837L11.2501 8.41927C11.2501 8.69153 11.3139 9.18546 11.367 9.41316C10.3044 9.41316 9.10778 9.451 8.18582 9.57121C6.92297 9.73632 7.07072 9.56484 6.4315 10.2766C5.78308 10.9982 4.58188 13.4276 4.69704 14.2525C4.75409 14.6588 5.14067 14.9678 5.62504 14.9678H24.2577C24.7467 14.9678 25.2541 14.6199 25.2541 14.1493C25.2541 13.4202 24.5355 11.9253 24.2106 11.39C23.5628 10.3226 23.3435 9.64723 22.3829 9.64723C22.3829 9.44463 22.4403 8.83577 22.5002 8.71167C22.5732 8.63919 23.1805 8.78628 23.3141 8.83472C24.3459 9.20914 25.3586 11.5042 25.7399 12.3782C25.827 12.578 25.9712 12.9061 26.0155 13.0967L26.4343 13.0938L26.1328 12.1611C27.0225 12.1611 27.9718 12.0989 28.6876 12.3015C29.5078 12.5338 29.9309 13.0521 30 13.5673ZM1.9336 27.0705C2.17915 27.2081 5.91418 27.1289 6.50379 27.1289C6.50379 27.4153 6.55942 28.0645 6.26957 28.0645C1.08391 28.0645 2.49203 28.3176 1.9336 27.0705ZM0.937559 20.7561C0.937559 20.1674 1.01764 19.2704 1.10411 18.7591C1.48821 16.4892 2.28935 17.0729 3.72653 15.9967C3.83496 15.9153 3.90936 15.8397 4.00008 15.7435C4.12693 15.6092 4.1535 15.5261 4.27752 15.4356C4.5617 15.6254 4.84302 15.9033 5.33201 15.9033H24.5507C25.163 15.9033 25.5085 15.4497 25.7813 15.3769C25.9549 16.1211 27.6752 16.7017 28.285 17.2052C28.707 17.5538 28.786 18.1103 28.8959 18.7591C29.0826 19.8616 29.1025 21.2709 28.9622 22.3514C28.8105 23.52 28.8066 24.0387 28.3966 25.2953C28.2333 25.7949 28.1869 26.1937 27.5392 26.1937H2.46084C1.91588 26.1937 1.77592 25.8171 1.61824 25.3388C1.2104 24.1013 0.937559 22.0919 0.937559 20.7561ZM27.3705 13.1529C28.2007 13.1554 28.7191 13.1695 29.0624 13.6815C28.8321 14.0248 28.0671 14.0322 27.6561 14.0322L27.3705 13.1529ZM2.33435 14.029C1.93289 14.0322 1.16789 14.0248 0.937559 13.6815C1.28588 13.1624 1.78725 13.1554 2.6366 13.1554L2.33435 14.029Z" fill="#1D7AFC"/>
<path fill-rule="evenodd" clip-rule="evenodd" d="M15 8.30223V8.59464C15 9.53266 15.7717 10.2904 16.8751 10.2904C17.857 10.2904 18.7797 9.06206 19.6435 8.20006C19.8324 8.01161 20.2842 7.48478 20.5078 7.42537C20.6226 8.30753 20.7363 9.01257 20.2743 9.94033C19.123 12.2534 16.4758 12.7533 14.7474 11.478C12.7861 10.0308 12.6097 7.40769 14.2353 5.78551C14.7048 5.31703 15.3536 4.92809 16.0474 4.78702C16.9184 4.60987 16.9903 4.69227 17.8694 4.80611C17.7174 5.3591 15 7.17858 15 8.30223ZM20.2009 5.54084C20.2757 5.78162 20.3795 5.77243 20.5078 5.96371L19.336 4.79445C19.5277 4.92244 19.5185 5.02604 19.7459 5.0865L21.108 3.75636L21.5506 4.16332L20.2009 5.54084ZM21.6795 2.92335C21.553 2.7349 21.338 2.46228 21.0938 2.39723L19.7318 3.72771C19.2885 3.52336 19.0128 3.61387 18.6914 4.0926C18.0303 3.77616 17.3963 3.74186 16.6406 3.74186C14.3477 3.74186 12.1877 5.89653 12.1877 8.18556C12.1877 9.73067 12.582 10.7723 13.5497 11.7375C15.3763 13.5602 18.374 13.5602 20.2006 11.7375C21.1622 10.778 21.5626 9.7243 21.5626 8.18556C21.5626 7.65025 21.3837 6.96609 21.2111 6.60685C21.6764 6.29607 21.8004 6.00296 21.5626 5.55427C21.8174 5.3842 22.0243 5.12291 22.2511 4.89662C22.4477 4.70005 22.8389 4.41719 22.9101 4.1513L22.3701 3.57886C23.4335 2.85686 24.4568 0.93556 25.7225 0.93556C26.7688 0.93556 27.4991 1.95172 27.0137 2.92546C26.5998 3.756 25.9283 4.48577 26.4825 5.5564C27.1179 6.784 28.2344 6.54851 29.5312 6.54851C29.8104 6.54851 29.9943 6.36891 30 6.09382V6.08075C30 5.1519 28.2499 5.93436 27.6111 5.42416C26.5601 4.58584 28.1249 3.68919 28.1249 2.45557V2.16316C28.1249 1.06779 27.0548 7.94971e-09 25.9571 7.94971e-09C25.2466 7.94971e-09 24.9139 -0.000705937 24.2672 0.418632C23.8385 0.696893 22.0544 2.67301 21.6795 2.92335Z" fill="#1D7AFC"/>
<path fill-rule="evenodd" clip-rule="evenodd" d="M9.43343 20.5807H20.5666C20.5666 21.3137 20.1141 22.4515 19.4533 22.4515H10.5467C9.88591 22.4515 9.43343 21.3137 9.43343 20.5807ZM8.43739 20.1713C8.43739 21.1337 8.53129 21.6316 8.96642 22.3914C9.18752 22.7775 9.77535 23.387 10.371 23.387H19.629C20.2013 23.387 20.7827 22.8118 21.012 22.4285C21.5364 21.5499 21.8514 19.6452 21.2111 19.6452H8.78889C8.58939 19.6452 8.43739 19.9708 8.43739 20.1713Z" fill="#1D7AFC"/>
<path fill-rule="evenodd" clip-rule="evenodd" d="M7.50017 24.9074C7.50017 25.0651 7.52781 25.0686 7.55864 25.1994C7.6901 25.2302 7.69329 25.2581 7.85168 25.2581H22.1483C22.3067 25.2581 22.3099 25.2302 22.4414 25.1994C22.4789 25.0428 22.5002 25.0895 22.5002 24.9657C22.5002 24.5846 21.3295 24.3226 20.8593 24.3226H9.14075C8.71093 24.3226 7.50017 24.6083 7.50017 24.9074Z" fill="#1D7AFC"/>
<path fill-rule="evenodd" clip-rule="evenodd" d="M2.81235 19.1774C2.81235 19.0434 2.83219 19.1095 2.87116 18.9437L4.51279 19.5858C4.89654 19.7576 5.76713 20.1787 5.97655 20.4637C5.66579 20.4895 5.39614 20.5807 5.03897 20.5807C4.57267 20.5807 3.73574 20.5337 3.43419 20.3697C3.1401 20.2098 2.81235 19.5936 2.81235 19.1774ZM1.87513 19.1191C1.87513 20.6108 2.85097 21.5163 4.27752 21.5163C5.49358 21.5163 5.89186 21.5856 7.04132 21.1168C7.23832 21.0365 7.33081 20.9622 7.50017 20.8731C7.40982 20.4863 6.88293 19.9733 6.60726 19.7173C6.29226 19.4249 5.77563 19.1205 5.37206 18.9034C5.00992 18.7089 2.72553 17.7741 2.34392 17.7741C2.10652 17.7741 2.05195 18.1252 2.00304 18.3112C1.9336 18.5742 1.87513 18.8065 1.87513 19.1191Z" fill="#1D7AFC"/>
<path fill-rule="evenodd" clip-rule="evenodd" d="M25.078 20.5807C24.8133 20.5807 24.2456 20.5418 24.0819 20.4637C24.4093 20.0182 26.5435 19.0795 27.1288 18.9437C27.2847 19.5299 26.8741 20.1625 26.6388 20.3255C26.3482 20.5266 25.5655 20.5807 25.078 20.5807ZM22.5002 20.9315C22.7897 21.0846 23.0366 21.214 23.4023 21.3172C24.2187 21.547 25.8858 21.6432 26.6845 21.365C28.7014 20.6621 28.1518 17.7741 27.6561 17.7741C27.2192 17.7741 25.1134 18.6874 24.6474 18.9232C24.4228 19.037 24.2127 19.1679 24.0227 19.2937L23.4193 19.7438C23.1249 19.9906 23.1387 19.9811 22.8967 20.2745C22.7301 20.4764 22.5647 20.6539 22.5002 20.9315Z" fill="#1D7AFC"/>
<path fill-rule="evenodd" clip-rule="evenodd" d="M5.68351 4.1513V4.26797C5.87202 4.31182 7.23372 4.79516 7.30778 4.86904C7.38182 4.94329 7.86621 6.30172 7.91015 6.48983H8.02743C8.07137 6.30172 8.55539 4.94329 8.6298 4.86904C8.70031 4.79869 9.28815 4.60387 9.42668 4.55367C9.66196 4.46845 10.0383 4.29095 10.3125 4.26797V4.1513C10.1633 4.13893 8.72901 3.62943 8.66133 3.5771C8.54157 3.48411 8.07527 2.13417 8.02743 1.92945H7.91015C7.86621 2.11719 7.38182 3.47598 7.30778 3.55023C7.23372 3.62412 5.87202 4.10746 5.68351 4.1513Z" fill="#1D7AFC"/>
<path fill-rule="evenodd" clip-rule="evenodd" d="M5.56657 25.3165C5.56657 24.8208 5.28064 24.4849 5.04819 24.1964C4.47559 23.485 3.3272 23.1155 2.42187 22.6661C2.2323 22.5721 2.01934 22.4101 1.81632 22.3931C1.85883 24.3 3.02743 24.4817 4.28496 24.9C4.69209 25.035 5.16051 25.2221 5.56657 25.3165Z" fill="#1D7AFC"/>
<path fill-rule="evenodd" clip-rule="evenodd" d="M24.375 25.3165L26.8875 24.4909C27.6905 24.1677 28.1249 23.5377 28.1249 22.3931C27.9718 22.4338 27.7518 22.5802 27.5781 22.6661C27.3751 22.7669 27.2355 22.8478 27.0286 22.9362C26.1137 23.3273 24.4851 23.9952 24.375 25.3165Z" fill="#1D7AFC"/>
<path fill-rule="evenodd" clip-rule="evenodd" d="M0.996026 7.89315V8.01018C1.95875 8.23365 2.0608 8.33583 2.28509 9.29648H2.40239C2.44029 9.13349 2.67309 8.43589 2.75105 8.35809C2.82865 8.28102 3.57381 8.02468 3.74991 8.01018V7.89315C3.61066 7.88148 2.86019 7.63009 2.78293 7.57175C2.65892 7.47807 2.62844 7.26379 2.57777 7.13332C2.51223 6.96432 2.44738 6.80026 2.40239 6.60686H2.28509C2.0608 7.56715 1.95875 7.66934 0.996026 7.89315Z" fill="#1D7AFC"/>
<path fill-rule="evenodd" clip-rule="evenodd" d="M1.9336 1.81242V1.92945C2.55722 2.07441 2.6086 2.12568 2.75388 2.74796H2.87116C2.9849 2.25968 3.06074 1.98674 3.74991 1.92945V1.81242C3.06179 1.75514 2.9849 1.48077 2.87116 0.993901H2.75388C2.6086 1.61619 2.55722 1.66745 1.9336 1.81242Z" fill="#1D7AFC"/>
</svg>
