<svg width="30" height="30" viewBox="0 0 30 30" fill="none" xmlns="http://www.w3.org/2000/svg">
<path fill-rule="evenodd" clip-rule="evenodd" d="M26.1328 7.0313V9.60941C26.1328 9.84027 26.0912 9.87675 26.0912 10.0195C26.0912 10.1622 26.1328 10.1987 26.1328 10.4297V12.9491C26.1328 13.1802 26.0912 13.2167 26.0912 13.3594C26.0912 13.5021 26.1328 13.5386 26.1328 13.7696V16.2304C26.1328 16.4614 26.0912 16.4979 26.0912 16.6406C26.0912 16.7833 26.1328 16.8198 26.1328 17.0509L26.0983 19.9291C26.0946 20.0855 26.1328 20.0488 26.1328 20.2735V22.8516C26.1328 23.0824 26.0912 23.1189 26.0912 23.2617L26.1328 23.9062C26.1328 26.2179 24.6604 26.1298 23.3131 26.0983C23.1567 26.0946 23.1933 26.1328 22.9687 26.1328L19.9732 26.0983C19.8167 26.0946 19.8536 26.1328 19.629 26.1328L16.6919 26.0983C16.5355 26.0946 16.5723 26.1328 16.3477 26.1328L13.3522 26.0983C13.1958 26.0946 13.2324 26.1328 13.0078 26.1328L10.0709 26.0983C9.91449 26.0946 9.95115 26.1328 9.72651 26.1328L6.73101 26.0983C6.16479 26.085 5.42673 26.3166 4.60363 25.7479C4.30386 25.5408 3.9258 25.0204 3.9258 24.5508V5.44923C3.9258 4.73048 4.73048 3.9258 5.44923 3.9258H24.5508C25.0204 3.9258 25.5408 4.30386 25.7479 4.60363C26.267 5.35497 26.1146 5.98941 26.0983 6.6869C26.0946 6.84333 26.1328 6.80666 26.1328 7.0313ZM6.64987 0H6.82934C7.02971 0.0366661 7.20706 0.205326 7.20706 0.585891V2.92978H9.55077V0.585891C9.55077 0.205326 9.72811 0.0366661 9.92849 0H10.1079C10.3094 0.0345473 10.4883 0.178588 10.4883 0.351486V2.92978H12.8907V0.351486C12.8907 0.178588 13.0696 0.0345473 13.271 0H13.4503C13.6507 0.0366661 13.8281 0.205326 13.8281 0.585891V2.92978H16.1719V0.585891C16.1719 0.205326 16.3493 0.0366661 16.5497 0H16.729C16.9304 0.0345473 17.1093 0.178588 17.1093 0.351486V2.92978H19.5117V0.351486C19.5117 0.178588 19.6906 0.0345473 19.8921 0H20.0715C20.2719 0.0366661 20.4492 0.205326 20.4492 0.585891V2.92978H22.7929V0.585891C22.7929 0.205326 22.9703 0.0366661 23.1707 0H23.3501C23.5516 0.0345473 23.7305 0.178588 23.7305 0.351486V2.92978C24.9382 2.92978 25.4981 3.1002 26.2262 3.71515C26.9592 4.33415 27.0702 5.32753 27.0702 6.26951H29.6485C29.8214 6.26951 29.9655 6.44844 30 6.64987V6.82935C29.9633 7.02971 29.7947 7.20706 29.4141 7.20706H27.0702V9.55077H29.4141C29.7947 9.55077 29.9633 9.72811 30 9.92849V10.1079C29.9655 10.3094 29.8214 10.4883 29.6485 10.4883H27.0702V12.8907H29.6485C29.8214 12.8907 29.9655 13.0696 30 13.271V13.4503C29.9633 13.6507 29.7947 13.8281 29.4141 13.8281H27.0702V16.1719H29.4141C29.7947 16.1719 29.9633 16.3493 30 16.5497V16.729C29.9655 16.9304 29.8214 17.1093 29.6485 17.1093H27.0702V19.5117H29.6485C29.8214 19.5117 29.9655 19.6906 30 19.8921V20.0715C29.9633 20.2719 29.7947 20.4492 29.4141 20.4492H27.0702V22.7929H29.4141C29.7947 22.7929 29.9633 22.9703 30 23.1707V23.3501C29.9655 23.5516 29.8214 23.7305 29.6485 23.7305H27.0702C27.0702 24.7961 26.9172 25.6729 26.1915 26.3086C25.5112 26.9049 24.8966 27.0702 23.7305 27.0702V29.6485C23.7305 29.8214 23.5516 29.9655 23.3501 30H23.1707C22.9703 29.9633 22.7929 29.7947 22.7929 29.4141V27.0702H20.4492V29.4141C20.4492 29.7947 20.2719 29.9633 20.0715 30H19.8921C19.6906 29.9655 19.5117 29.8214 19.5117 29.6485V27.0702H17.1093V29.6485C17.1093 29.8214 16.9304 29.9655 16.729 30H16.5497C16.3493 29.9633 16.1719 29.7947 16.1719 29.4141V27.0702H13.8281V29.4141C13.8281 29.7947 13.6507 29.9633 13.4503 30H13.271C13.0696 29.9655 12.8907 29.8214 12.8907 29.6485V27.0702H10.4883V29.6485C10.4883 29.8214 10.3094 29.9655 10.1079 30H9.92849C9.72811 29.9633 9.55077 29.7947 9.55077 29.4141V27.0702H7.20706V29.4141C7.20706 29.7947 7.02971 29.9633 6.82934 30H6.64987C6.44844 29.9655 6.26951 29.8214 6.26951 29.6485V27.0702C3.97169 27.0702 2.92978 26.0283 2.92978 23.7305H0.351486C0.178588 23.7305 0.0345473 23.5516 0 23.3501V23.1707C0.0366661 22.9703 0.205326 22.7929 0.585891 22.7929H2.92978V20.4492H0.585891C0.205326 20.4492 0.0366661 20.2719 0 20.0715V19.8921C0.0345473 19.6906 0.178588 19.5117 0.351486 19.5117H2.92978V17.1093H0.351486C0.178588 17.1093 0.0345473 16.9304 0 16.729V16.5497C0.0366661 16.3493 0.205326 16.1719 0.585891 16.1719H2.92978V13.8281H0.585891C0.205326 13.8281 0.0366661 13.6507 0 13.4503V13.271C0.0345473 13.0696 0.178588 12.8907 0.351486 12.8907H2.92978V10.4883H0.351486C0.178588 10.4883 0.0345473 10.3094 0 10.1079V9.92849C0.0366661 9.72811 0.205326 9.55077 0.585891 9.55077H2.92978V7.20706H0.585891C0.205326 7.20706 0.0366661 7.02971 0 6.82935V6.64987C0.0345473 6.44844 0.178588 6.26951 0.351486 6.26951H2.92978C2.92978 3.97169 3.97169 2.92978 6.26951 2.92978V0.351486C6.26951 0.178588 6.44844 0.0345473 6.64987 0Z" fill="#1D7AFC"/>
<path fill-rule="evenodd" clip-rule="evenodd" d="M6.91402 6.91402H23.086V23.086H6.91402V6.91402ZM5.97664 6.50389V23.4961C5.97664 23.8152 6.18481 24.0234 6.50389 24.0234H23.4961C23.8152 24.0234 24.0234 23.8152 24.0234 23.4961V6.50389C24.0234 6.18481 23.8152 5.97664 23.4961 5.97664H6.50389C6.18481 5.97664 5.97664 6.18481 5.97664 6.50389Z" fill="#1D7AFC"/>
</svg>
