<svg width="33" height="32" viewBox="0 0 33 32" fill="none" xmlns="http://www.w3.org/2000/svg">
<path d="M16.75 29.3334C24.1138 29.3334 30.0834 23.3639 30.0834 16.0001C30.0834 8.63628 24.1138 2.66675 16.75 2.66675C9.38622 2.66675 3.41669 8.63628 3.41669 16.0001C3.41669 23.3639 9.38622 29.3334 16.75 29.3334Z" stroke="#1D7AFC" stroke-width="1.8" stroke-linecap="round" stroke-linejoin="round"/>
<path d="M12.87 12C13.1835 11.1089 13.8022 10.3575 14.6166 9.87887C15.431 9.40024 16.3885 9.22528 17.3196 9.38498C18.2506 9.54467 19.0951 10.0287 19.7034 10.7514C20.3118 11.4741 20.6447 12.3887 20.6433 13.3334C20.6433 16 16.6433 17.3334 16.6433 17.3334" stroke="#1D7AFC" stroke-width="1.8" stroke-linecap="round" stroke-linejoin="round"/>
<path d="M16.75 22.6667H16.7633" stroke="#1D7AFC" stroke-width="2.4" stroke-linecap="round" stroke-linejoin="round"/>
</svg>
