<svg width="24" height="24" viewBox="0 0 24 24" fill="none" xmlns="http://www.w3.org/2000/svg">
<path d="M19 3.00098H5C3.89543 3.00098 3 3.89641 3 5.00098V19.001C3 20.1055 3.89543 21.001 5 21.001H19C20.1046 21.001 21 20.1055 21 19.001V5.00098C21 3.89641 20.1046 3.00098 19 3.00098Z" stroke="#333B4D" stroke-width="1.8" stroke-linecap="round" stroke-linejoin="round"/>
<path d="M8.5 10.001C9.32843 10.001 10 9.3294 10 8.50098C10 7.67255 9.32843 7.00098 8.5 7.00098C7.67157 7.00098 7 7.67255 7 8.50098C7 9.3294 7.67157 10.001 8.5 10.001Z" stroke="#333B4D" stroke-width="1.8" stroke-linecap="round" stroke-linejoin="round"/>
<path d="M21 15.001L16 10.001L5 21.001" stroke="#333B4D" stroke-width="1.8" stroke-linecap="round" stroke-linejoin="round"/>
</svg>
