<svg width="32" height="32" viewBox="0 0 32 32" fill="none" xmlns="http://www.w3.org/2000/svg">
<path d="M16.0364 0H15.9636C7.14713 0 0 7.14731 0 15.964V16.0368C0 24.8535 7.14713 32.0008 15.9636 32.0008H16.0364C24.8529 32.0008 32 24.8535 32 16.0368V15.964C32 7.14731 24.8529 0 16.0364 0Z" fill="url(#paint0_linear_46_2622)"/>
<path d="M20.9561 6.50879H11.0544C8.31889 6.50879 6.09348 8.73426 6.09348 11.4698V20.5287C6.09348 23.2643 8.31889 25.4897 11.0544 25.4897H20.9561C23.6916 25.4897 25.917 23.2643 25.917 20.5287V11.4698C25.917 8.73426 23.6916 6.50879 20.9561 6.50879ZM7.84354 11.4698C7.84354 9.69956 9.28417 8.25889 11.0544 8.25889H20.9561C22.7263 8.25889 24.167 9.69956 24.167 11.4698V20.5287C24.167 22.299 22.7263 23.7396 20.9561 23.7396H11.0544C9.28417 23.7396 7.84354 22.299 7.84354 20.5287V11.4698Z" fill="white"/>
<path d="M16.0038 20.615C18.5476 20.615 20.6183 18.5454 20.6183 16.0004C20.6183 13.4554 18.5488 11.3857 16.0038 11.3857C13.4589 11.3857 11.3893 13.4554 11.3893 16.0004C11.3893 18.5454 13.4589 20.615 16.0038 20.615ZM16.0038 13.137C17.5835 13.137 18.8683 14.4218 18.8683 16.0015C18.8683 17.5812 17.5835 18.866 16.0038 18.866C14.4242 18.866 13.1394 17.5812 13.1394 16.0015C13.1394 14.4218 14.4242 13.137 16.0038 13.137Z" fill="white"/>
<path d="M21.0486 12.1261C21.7332 12.1261 22.2912 11.5691 22.2912 10.8831C22.2912 10.1972 21.7343 9.64014 21.0486 9.64014C20.3628 9.64014 19.806 10.1972 19.806 10.8831C19.806 11.5691 20.3628 12.1261 21.0486 12.1261Z" fill="white"/>
<defs>
<linearGradient id="paint0_linear_46_2622" x1="4.67505" y1="27.3256" x2="27.3255" y2="4.67685" gradientUnits="userSpaceOnUse">
<stop stop-color="#FAAD4F"/>
<stop offset="0.35" stop-color="#DD2A7B"/>
<stop offset="0.62" stop-color="#9537B0"/>
<stop offset="1" stop-color="#515BD4"/>
</linearGradient>
</defs>
</svg>
