<svg width="20" height="20" viewBox="0 0 20 20" fill="none" xmlns="http://www.w3.org/2000/svg">
<path d="M14.9561 0.508789H5.05441C2.31889 0.508789 0.0934753 2.73426 0.0934753 5.46985V14.5287C0.0934753 17.2643 2.31889 19.4897 5.05441 19.4897H14.9561C17.6916 19.4897 19.917 17.2643 19.917 14.5287V5.46985C19.917 2.73426 17.6916 0.508789 14.9561 0.508789ZM1.84354 5.46985C1.84354 3.69956 3.28417 2.25889 5.05441 2.25889H14.9561C16.7263 2.25889 18.167 3.69956 18.167 5.46985V14.5287C18.167 16.299 16.7263 17.7396 14.9561 17.7396H5.05441C3.28417 17.7396 1.84354 16.299 1.84354 14.5287V5.46985Z" fill="white"/>
<path d="M10.0038 14.615C12.5476 14.615 14.6183 12.5454 14.6183 10.0004C14.6183 7.45537 12.5488 5.38574 10.0038 5.38574C7.4589 5.38574 5.38931 7.45537 5.38931 10.0004C5.38931 12.5454 7.4589 14.615 10.0038 14.615ZM10.0038 7.13697C11.5835 7.13697 12.8683 8.4218 12.8683 10.0015C12.8683 11.5812 11.5835 12.866 10.0038 12.866C8.42418 12.866 7.13938 11.5812 7.13938 10.0015C7.13938 8.4218 8.42418 7.13697 10.0038 7.13697Z" fill="white"/>
<path d="M15.0486 6.1261C15.7332 6.1261 16.2912 5.56906 16.2912 4.88312C16.2912 4.19718 15.7343 3.64014 15.0486 3.64014C14.3628 3.64014 13.806 4.19718 13.806 4.88312C13.806 5.56906 14.3628 6.1261 15.0486 6.1261Z" fill="white"/>
</svg>
