<svg width="25" height="24" viewBox="0 0 25 24" fill="none" xmlns="http://www.w3.org/2000/svg">
<path d="M18.8333 15V9C18.8333 6.172 18.8333 4.757 17.9543 3.879C17.0763 3 15.6613 3 12.8333 3H8.83331C6.00531 3 4.59031 3 3.71231 3.879C2.83331 4.757 2.83331 6.172 2.83331 9V15C2.83331 17.828 2.83331 19.243 3.71231 20.121C4.59031 21 6.00531 21 8.83331 21H20.8333M6.83331 8H14.8333M6.83331 12H14.8333M6.83331 16H10.8333" stroke="#738496" stroke-width="1.8" stroke-linecap="round" stroke-linejoin="round"/>
<path d="M18.8333 8H19.8333C21.2473 8 21.9543 8 22.3933 8.44C22.8333 8.879 22.8333 9.586 22.8333 11V19C22.8333 19.5304 22.6226 20.0391 22.2475 20.4142C21.8725 20.7893 21.3637 21 20.8333 21C20.3029 21 19.7942 20.7893 19.4191 20.4142C19.044 20.0391 18.8333 19.5304 18.8333 19V8Z" stroke="#738496" stroke-width="1.8" stroke-linecap="round" stroke-linejoin="round"/>
</svg>
