<svg width="30" height="24" viewBox="0 0 30 24" fill="none" xmlns="http://www.w3.org/2000/svg">
<path fill-rule="evenodd" clip-rule="evenodd" d="M8.4961 10.7477C8.4961 11.6319 9.66796 11.6319 9.66796 10.7477C9.95803 10.7477 10.2534 10.8291 10.5434 10.8703L13.3574 11.1074C13.7688 11.1147 13.9422 11.0467 14.2946 11.0428L16.1484 10.9023C16.4553 10.8572 16.7719 10.7713 17.0508 10.7477C17.0508 11.5489 17.8201 11.5271 18.0822 11.2C18.3023 10.9252 18.2067 10.6958 18.1641 10.5098C19.0062 10.3107 19.8884 9.9703 20.625 9.79612C20.8876 10.1942 21.3153 10.1693 21.5537 9.90616C21.9261 9.49526 21.3193 9.594 22.2302 9.28263C22.462 9.20341 22.515 9.14377 22.6794 9.1995C22.8182 9.24656 23.3692 9.54508 23.53 9.64278L27.7734 11.9967C27.4447 12.0245 18.7044 14.8068 17.6293 15.1415L12.1664 16.8524C11.3047 17.1103 11.7807 17.1391 10.9768 16.7348C9.30901 15.8961 7.53978 14.8705 5.89843 14.0388C5.37476 13.7734 2.48098 12.1759 2.22656 12.1157V11.9967C2.47283 11.9759 2.66731 11.869 2.90858 11.7969C3.16999 11.7187 3.36258 11.6628 3.58148 11.5878L7.73437 10.2719C7.97357 10.2719 8.279 10.4271 8.55468 10.4503C8.52407 10.5837 8.4961 10.5871 8.4961 10.7477ZM30 17.6931V17.8999C29.9488 18.1338 29.7225 18.347 29.3354 18.4593L27.4591 19.0527C27.1333 19.1614 26.841 19.2538 26.5182 19.3468C25.8473 19.54 23.1381 20.5019 22.6758 20.5019C21.9172 20.5019 21.8985 19.5463 22.5506 19.3042C23.2643 19.0392 24.0676 18.8557 24.7928 18.6064C25.142 18.4864 27.4199 17.7145 27.7734 17.7065V17.5876C27.5574 17.5365 27.4612 17.4471 27.302 17.3524C27.1553 17.2651 26.9883 17.189 26.8359 17.1117L23.1445 15.149C22.6933 14.9199 22.699 14.8386 22.1735 14.9952C19.0733 15.9188 15.7326 17.0398 12.6051 18.0114C12.2968 18.1073 11.7398 18.3013 11.4258 18.3013C11.2361 18.3013 10.0152 17.629 9.76638 17.4877C9.57379 17.3782 9.48909 17.3169 9.27758 17.2106C8.89005 17.0158 7.44963 16.1224 7.12741 16.1927C6.32556 16.368 4.39037 17.0905 3.45703 17.3496C3.0728 17.4563 2.62789 17.6726 2.22656 17.7065V17.8255C2.56563 17.9056 2.89371 18.163 3.20225 18.322L5.97656 19.7882C6.14735 19.8748 6.30116 19.9453 6.48467 20.0456L11.1332 22.5238C11.2632 22.5901 11.4657 22.7418 11.5941 22.7426L16.9991 21.0442C17.4192 20.9084 18.75 20.3189 18.75 21.2751C18.75 21.7447 18.483 21.8535 18.0988 21.982L15.286 22.8739C14.6437 23.0816 14.0563 23.2573 13.3969 23.4543C11.2926 24.0827 11.9165 24.3318 9.96017 23.2981C9.71328 23.1676 9.51789 23.0425 9.23829 22.9008L5.58596 20.9579C5.06194 20.6928 4.64993 20.4511 4.12099 20.1848C3.83999 20.0434 3.65889 19.9186 3.39888 19.7878C2.66665 19.4191 1.91128 19.0526 1.20573 18.6238C0.816214 18.387 0 18.171 0 17.647C0 17.3073 0.155679 17.1295 0.432008 17.015C1.16149 16.7125 1.96799 16.5573 2.71796 16.302C3.0808 16.1785 5.38222 15.3951 5.74219 15.3869C5.59651 15.1851 5.24454 15.0849 4.99971 14.951L0.50638 12.5533C0.213837 12.4059 0.0365117 12.174 0 11.9447V11.7709C0.0335051 11.5703 0.186927 11.39 0.479386 11.2938L2.75391 10.5693C3.25017 10.4315 5.38737 9.65261 5.80078 9.61769C5.67433 9.44248 5.65247 9.4871 5.43381 9.39542C5.28159 9.33158 5.18036 9.28734 5.02212 9.21856C4.75782 9.10366 4.52044 8.96786 4.27735 8.84448L1.2693 7.25868C0.836014 7.04089 0 6.73172 0 6.16803C0 5.65198 0.51221 5.59012 0.886529 5.46205L4.37341 4.36231C5.97706 3.88293 7.49491 3.38096 9.07459 2.88927C11.5235 2.12699 14.3456 1.28883 16.7364 0.496067C18.71 -0.158316 18.2761 -0.236521 20.0398 0.695405C22.0857 1.77645 24.618 3.20738 26.6011 4.20574C27.3333 4.57437 28.0887 4.94089 28.7943 5.36974C29.1838 5.60651 30 5.82252 30 6.34646C30 7.02354 29.2977 7.04742 28.8061 7.21624C28.2802 7.39683 27.8106 7.51152 27.282 7.69145C26.7551 7.87082 26.2883 7.98818 25.7585 8.16715C25.3737 8.29714 24.6475 8.59776 24.2578 8.60658C24.4035 8.8084 24.7555 8.90862 25.0003 9.04245C25.2614 9.1852 25.4593 9.30571 25.7226 9.43926L29.4936 11.4402C29.7368 11.5627 30 11.7192 30 12.0562C30 12.5965 29.5526 12.674 29.157 12.8064C27.7759 13.2686 26.3711 13.6436 24.9975 14.1155C24.7628 14.1962 24.5131 14.2948 24.2578 14.3163C24.3968 14.509 24.7591 14.631 25.0001 14.7524L28.7307 16.7348C29.0261 16.8833 29.193 16.9998 29.4935 17.15C29.7911 17.2988 29.9571 17.495 30 17.6931ZM9.08203 9.26083C9.80509 9.26083 11.434 8.37684 12.0275 7.78987C12.1611 7.65764 12.2147 7.57753 12.3633 7.47651C12.4946 7.5658 12.8412 7.98737 12.9492 8.1308C13.1404 8.38475 13.3707 8.54436 13.6085 8.77007C13.8661 9.01463 14.3913 9.34879 14.7178 9.54729L15.1172 9.79612L13.0078 9.85559C11.2244 9.85559 9.40183 9.37977 9.08203 9.37977V9.26083ZM7.61719 8.24972C5.23466 8.24972 6.01067 8.37493 3.63358 7.11888C3.47981 7.03764 3.31994 6.96082 3.16406 6.88175L2.22656 6.28699C2.55019 6.27968 5.17722 5.38537 5.6126 5.26331L7.31731 4.73358C7.86636 4.55667 8.44075 4.38443 9.0165 4.19827L17.8336 1.43133C18.3424 1.27904 18.3182 1.15718 18.6364 1.34234C19.5546 1.87655 20.9733 2.55904 21.9534 3.09478C22.2051 3.23236 22.3664 3.33481 22.6367 3.47177L26.289 5.41469C26.6416 5.59307 27.5431 6.11357 27.7734 6.16803L18.3777 9.1803C17.702 9.38053 17.8506 9.39189 17.3655 9.24034C16.9874 9.12221 16.693 9.05026 16.3253 8.92668C15.9974 8.81651 15.6022 8.66219 15.3394 8.50002C14.5742 8.02779 14.378 7.87055 13.8138 7.25313C13.5658 6.98166 13.418 6.82171 13.2234 6.48449C12.4897 5.21346 12.1333 5.95328 11.4697 6.629C10.5307 7.58527 9.12374 8.24972 7.61719 8.24972Z" fill="#1D7AFC"/>
<path fill-rule="evenodd" clip-rule="evenodd" d="M11.25 14.9706C11.25 16.2244 12.9547 15.4777 12.2814 14.6373C11.971 14.2499 11.25 14.427 11.25 14.9706Z" fill="#1D7AFC"/>
<path fill-rule="evenodd" clip-rule="evenodd" d="M8.32032 12.7105C8.23682 12.7353 7.69919 12.8055 7.82376 13.3892C7.99708 14.2013 9.1524 13.9103 8.99267 13.1618C8.95818 13.0003 8.88044 12.8695 8.76808 12.7901C8.73071 12.7637 8.61094 12.7065 8.56268 12.6937C8.39889 12.6504 8.41032 12.6837 8.32032 12.7105Z" fill="#1D7AFC"/>
<path fill-rule="evenodd" clip-rule="evenodd" d="M13.0664 12.1752C12.9829 12.2 12.4453 12.2702 12.5699 12.8539C12.6385 13.1753 12.9314 13.4071 13.2663 13.3335C13.8343 13.2085 13.8812 12.5143 13.5142 12.2548C13.4768 12.2284 13.357 12.1712 13.3088 12.1584C13.2028 12.1304 13.2858 12.1369 13.1808 12.1421C13.0886 12.1467 13.0999 12.1652 13.0664 12.1752Z" fill="#1D7AFC"/>
<path fill-rule="evenodd" clip-rule="evenodd" d="M19.8047 20.6209C19.8047 20.902 20.0634 21.2156 20.4492 21.2156C21.1552 21.2156 21.2465 20.0261 20.3906 20.0261C20.0051 20.0261 19.8047 20.4034 19.8047 20.6209Z" fill="#1D7AFC"/>
<path fill-rule="evenodd" clip-rule="evenodd" d="M20.0391 11.3425C20.0391 12.4393 21.211 12.0818 21.211 11.5804C21.211 10.4836 20.0391 10.8411 20.0391 11.3425Z" fill="#1D7AFC"/>
<path fill-rule="evenodd" clip-rule="evenodd" d="M15.6445 13.2457V13.3052C15.6445 14.0496 16.8164 14.0496 16.8164 13.3052V13.2457C16.8164 12.5014 15.6445 12.5014 15.6445 13.2457Z" fill="#1D7AFC"/>
</svg>
