<svg width="29" height="23" viewBox="0 0 29 23" fill="none" xmlns="http://www.w3.org/2000/svg">
<path fill-rule="evenodd" clip-rule="evenodd" d="M26.6777 21.2307H22.9394C22.7247 21.2307 22.713 20.8946 22.713 20.6777V20.346H27.1309C27.0254 20.5606 26.9634 21.2307 26.6777 21.2307ZM29 7.522V7.8062C28.975 7.9854 28.9027 8.15626 28.7849 8.30436C28.278 8.94062 26.9976 8.84634 26.2814 8.84634C26.0519 8.84634 25.8916 8.04291 25.8848 7.96167H25.4316C25.8351 8.78248 25.4748 8.89315 26.4129 9.38128C27.8121 10.1088 28.3595 10.2345 28.7513 11.7427C28.888 12.269 28.9681 12.8935 29 13.5629V14.9808C28.9298 16.6148 28.6308 18.2925 28.2057 19.3497C28.1355 19.5242 28.1564 19.5967 28.1252 19.8241C28.0485 20.3864 27.9923 21.1631 27.6193 21.6523C27.4765 21.8392 27.2028 22.1153 26.9045 22.1153H22.5431C21.8961 22.1153 21.7502 21.0317 21.7502 20.346H14.5565C14.4308 20.8736 14.5 22.3664 14.5 23H13.5937V20.346C13.1803 20.346 12.6754 20.2246 12.2585 20.1564C10.8401 19.9251 11.2556 19.8365 10.1174 20.2149C9.70983 20.3503 9.70401 20.3483 9.17584 20.3463C8.81721 20.3447 8.45824 20.3463 8.09962 20.346C7.4526 20.3457 7.36047 20.3952 7.07993 20.4012C7.2327 20.6238 7.42007 20.7883 7.42007 21.1755C7.42007 21.6931 6.98609 22.1153 6.4569 22.1153H2.54871C2.10857 22.1153 1.68967 21.91 1.45674 21.6884C1.12758 21.3754 1.05634 21.2531 0.848428 20.8445C0.476107 20.1126 0.554537 19.2594 0.339091 18.4115C0.14044 17.6291 0.048982 16.6402 0 15.8183V15.4084C0.0291218 15.1008 0.138386 14.9895 0.30211 14.6699C0.930299 13.4432 0.914531 14.041 0.3891 12.5023C0.125015 11.7287 -0.212022 11.2242 0.213049 10.5468C0.799104 9.61232 1.56155 9.7718 1.69412 9.32912C1.85545 8.79084 1.54169 9.21077 0.667241 8.63737C0.475079 8.51098 0.322997 8.40934 0.205858 8.20306C-0.392524 7.15089 0.40521 6.19234 1.64274 6.19234C1.95307 6.19234 1.46634 6.38458 2.2812 6.04189C3.2519 5.63365 4.10478 5.17527 4.98439 5.75C5.08235 5.60757 5.20566 5.44942 5.33856 5.32171C5.95407 4.73126 5.63518 3.64901 6.6576 2.96025C7.03609 2.70548 8.69117 2.56842 9.23132 2.54233C9.49815 2.52963 9.58034 2.48616 9.91295 2.48917C10.251 2.49184 10.2931 2.46611 10.5278 2.37048C11.8033 1.84891 12.2301 1.76933 13.5937 1.76933V0H14.5L14.5565 2.654L18.1825 2.65333C18.5274 2.65132 18.6462 2.69512 18.9179 2.7095C19.1741 2.72288 19.4549 2.69546 19.7111 2.70883L21.7906 2.89072C23.2449 3.07795 23.3936 3.7269 24.1965 5.02047C24.4092 5.36284 25.0644 6.72461 25.1483 7.07701L25.5532 7.07433L25.2617 6.19234C26.1218 6.19234 27.0394 6.13315 27.7313 6.32506C28.5242 6.54472 28.9332 7.03488 29 7.522ZM18.8048 15.923H14.5565C14.5565 15.5271 14.5 15.3122 14.5 14.9832C14.5 14.6632 14.5565 14.5231 14.5565 14.1537H19.881C19.881 14.8471 19.4436 15.923 18.8048 15.923ZM9.11898 14.0433C9.42244 14.0366 10.0969 13.7946 10.4223 13.712C11.9441 13.3265 11.2786 13.0684 13.5937 14.2643V14.9832C13.3676 14.8772 12.6843 14.6568 12.412 14.5843C11.8335 14.4302 10.6542 15.2296 9.87732 14.9069C9.41594 14.7154 9.31592 14.4435 9.11898 14.0433ZM14.5565 9.73067H23.7324C24.3242 9.73067 24.6582 9.30205 24.9219 9.23316C25.0898 9.93696 26.7527 10.4856 27.3422 10.9621C27.7501 11.2917 27.8265 11.818 27.9327 12.4311C28.1132 13.4739 28.1324 14.8066 27.9967 15.8284L27.7953 17.2905C27.7159 17.708 27.5895 18.1938 27.4501 18.6121C27.2922 19.0845 27.2473 19.4613 26.6212 19.4613H14.5565V18.577C15.6385 18.577 21.0802 18.6609 21.6933 18.5215C21.7296 18.3734 21.7502 18.4172 21.7502 18.3005C21.7502 17.9401 20.6185 17.6923 20.164 17.6923H14.5565V16.8077H18.9747C19.5279 16.8077 20.09 16.2637 20.3116 15.9009C20.8185 15.0701 21.123 13.2693 20.5041 13.2693H14.5565V9.73067ZM6.23048 8.3485L6.92888 7.09505C7.02342 6.92321 7.08062 6.85666 7.17516 6.67212C7.33512 6.35951 7.47864 6.10173 7.62798 5.78712C8.09688 4.79914 7.67833 4.976 9.62899 4.976C9.96056 4.976 10.5744 5.06795 10.7949 5.0091C11.01 4.95193 12.1671 4.09133 13.5937 4.09133V7.96167C13.0008 8.00982 9.49883 8.92289 9.10424 8.86271L6.23048 8.3485ZM14.5 6.68983V4.6995C14.5 4.23143 14.5565 3.99604 14.5565 3.53866C15.866 3.53866 21.2316 3.58647 22.178 3.89474C22.8339 4.10838 24.4123 7.17061 24.4123 8.072C24.4123 8.51733 23.9218 8.84634 23.4491 8.84634H14.5565C14.5565 8.06264 14.5 7.4782 14.5 6.68983ZM26.4581 7.12983C27.2607 7.13217 27.7618 7.14587 28.0937 7.63C27.871 7.95465 27.1315 7.96167 26.7342 7.96167L26.4581 7.12983ZM8.72267 4.03617C7.06007 4.03617 7.51974 4.02614 6.34419 6.24784L5.12002 8.37057C4.63295 9.14691 5.5218 9.14357 5.85747 9.2101C6.26747 9.29167 6.59424 9.34483 7.00801 9.41438L9.24091 9.80689C9.44266 9.8099 10.0044 9.66147 10.2866 9.5986C10.6768 9.51168 11.0539 9.42909 11.3985 9.35721C11.7814 9.2773 12.1308 9.21177 12.4723 9.13353L13.5937 8.9015V13.2138C13.2155 13.1279 11.989 12.3847 11.7814 12.3847L8.85969 13.1817C8.43119 13.2994 8.15615 13.382 8.15615 13.822C8.15615 14.8534 9.14843 15.923 10.3086 15.923C10.6603 15.923 11.6485 15.6345 12.0242 15.5469C12.3521 15.4703 12.4503 15.5599 12.7795 15.6676C13.0594 15.7588 13.3234 15.8615 13.5937 15.923V17.6368C13.232 17.6074 12.5267 17.25 12.2911 17.25C11.9852 17.25 11.4865 17.3704 11.1727 17.4299C10.3973 17.5777 8.15615 17.7859 8.15615 18.3005C8.15615 18.7983 9.20494 18.4904 9.73448 18.4031C10.1493 18.3349 10.6384 18.265 11.0546 18.1955C11.4896 18.1226 11.7906 18.2413 12.3051 18.342C12.66 18.4112 13.2645 18.5696 13.5937 18.577V19.4613C13.4988 19.4169 11.1306 19.019 10.9316 19.019C10.7549 19.019 9.9859 19.2988 9.76497 19.3731C9.10492 19.5954 5.8907 19.1363 5.8907 20.1802C5.8907 20.69 6.38907 20.7285 6.40038 21.2307H2.7186C2.13836 21.2307 1.87839 20.8515 1.69891 20.457C1.46532 19.9441 1.44921 19.6088 1.41736 18.907C1.40605 18.6576 1.30194 18.4242 1.24472 18.1912C1.03236 17.3279 0.962828 16.4486 0.962828 15.5362C0.962828 15.3392 1.32899 14.69 1.43996 14.5087C1.81571 13.8962 1.85065 13.8782 1.70816 13.4833C1.54854 13.042 0.962828 11.4833 0.962828 11.1128C0.962828 10.9784 1.21527 10.7598 1.31837 10.6859C1.43654 10.6013 1.7294 10.491 1.88799 10.4127C2.62577 10.0486 2.39389 10.3418 2.60351 9.50767C2.87239 8.43877 3.45297 9.42976 4.11197 8.60293C4.19145 8.50363 4.47471 8.20506 4.47471 8.1275C4.47471 7.66845 4.262 7.74033 3.90819 7.74033C3.47796 7.74033 4.09862 8.26425 2.89396 8.22714C0.342857 8.14856 0.77445 7.13217 1.52937 7.13217C2.26579 7.13217 1.5547 7.35718 2.86897 6.78144C3.38584 6.5551 3.74445 6.41367 4.30482 6.41367C4.28017 6.70019 4.14212 6.75302 4.07808 7.02184C4.98268 7.02184 4.88471 7.09372 5.36664 6.62096C6.44113 5.56679 6.22363 5.96565 6.71893 4.51294C6.89977 3.98234 6.92717 3.73426 7.51117 3.57244C8.73123 3.23476 9.94103 3.63195 10.7247 3.28155C11.6101 2.88537 12.3264 2.654 13.5937 2.654V3.207L12.9751 3.20968C12.7747 3.22605 12.575 3.28357 12.3709 3.34008C11.3039 3.63663 10.8706 4.09401 10.1969 4.09434C9.69647 4.09468 9.28818 4.03617 8.72267 4.03617Z" fill="#1D7AFC"/>
<path fill-rule="evenodd" clip-rule="evenodd" d="M24.242 14.1537C23.9862 14.1537 23.4374 14.1172 23.2792 14.0433C23.4621 13.7996 24.3064 13.3593 24.6393 13.2145L26.2245 12.6057C26.3753 13.1603 25.9783 13.7585 25.7508 13.9126C25.47 14.1025 24.7133 14.1537 24.242 14.1537ZM21.7502 14.4857C22.03 14.6301 22.2687 14.7528 22.6222 14.8504C23.4114 15.0678 25.023 15.1587 25.795 14.8956C26.1461 14.7759 26.266 14.7027 26.4955 14.4733C27.1932 13.7769 27.3097 12.9574 27.0757 12.0517C26.8846 11.3121 26.8928 11.3532 25.2449 11.9811C24.2691 12.3526 23.7392 12.5796 22.9154 13.1353C22.7617 13.2389 22.7688 13.256 22.6387 13.3626C22.354 13.596 22.3674 13.587 22.1335 13.8645C21.9725 14.0554 21.8125 14.2232 21.7502 14.4857Z" fill="#1D7AFC"/>
<path fill-rule="evenodd" clip-rule="evenodd" d="M3.56839 12.4398L6.17396 12.8822C5.99928 13.0303 5.75129 13.1092 5.52934 13.1928C5.26423 13.2927 4.24214 13.4669 3.88934 13.1215C3.80098 13.035 3.73143 12.947 3.66602 12.8424C3.5725 12.6929 3.56839 12.6658 3.56839 12.4398ZM2.60557 12.4953C2.60557 13.039 3.21903 13.919 3.67937 14.1008C3.99518 14.2252 4.55007 14.2092 4.92787 14.2092C5.65127 14.2092 6.62713 13.7454 7.21763 13.4034C7.34676 13.3285 7.42349 13.2961 7.54371 13.2242C7.69305 13.1346 7.74032 13.0911 7.92973 13.048C7.86123 12.7982 7.63791 12.6448 7.4646 12.5067C6.86175 12.0256 5.94824 11.8962 5.16215 11.7688C4.61789 11.6802 3.98045 11.5983 3.43242 11.4652C3.05187 11.373 2.92993 11.3151 2.7871 11.6772C2.70695 11.8808 2.60557 12.2355 2.60557 12.4953Z" fill="#1D7AFC"/>
<path fill-rule="evenodd" clip-rule="evenodd" d="M23.5625 18.6322C23.9526 18.5436 24.3461 18.3874 24.7722 18.2651C25.1925 18.1444 25.6083 18.0023 25.9913 17.8515C26.7674 17.5459 27.1874 16.9498 27.1874 15.8678C27.0394 15.9063 26.8267 16.0444 26.6589 16.1259C25.6344 16.6231 23.683 17.2179 23.5625 18.6322Z" fill="#1D7AFC"/>
<path fill-rule="evenodd" clip-rule="evenodd" d="M1.98251 16.5312C2.71757 16.911 2.87136 16.931 3.02413 17.3941C3.08647 17.5833 3.15497 17.7147 3.17176 17.9133C3.83625 17.8989 4.13493 17.468 4.48979 17.7853C4.82066 18.0812 5.07104 18.3928 5.43754 18.6322C5.32416 18.1581 5.01212 17.5472 4.76449 17.1326C4.6083 16.8712 4.60419 16.925 4.26029 16.8508C3.32076 16.6478 2.81588 16.5746 1.98251 16.1443V16.5312Z" fill="#1D7AFC"/>
</svg>
