<svg width="30" height="28" viewBox="0 0 30 28" fill="none" xmlns="http://www.w3.org/2000/svg">
<path fill-rule="evenodd" clip-rule="evenodd" d="M14.4547 25.6167V24.7H21.9172V25.8H14.6413C14.498 25.8 14.4547 25.7575 14.4547 25.6167ZM21.6063 27.2667H14.7656C13.7531 27.2667 13.0244 26.5603 13.0244 25.8V24.7H13.6463C13.6463 25.471 13.548 26.5944 14.6413 26.5944H21.7307C22.8929 26.5944 22.7257 25.3831 22.7257 24.7H23.4097C23.4097 25.8799 23.3889 27.2667 21.6063 27.2667ZM20.2382 21.7055V23.9666H11.4075C11.2619 23.9666 11.1588 23.8653 11.1588 23.7222V21.4C11.1588 20.4575 11.757 19.75 12.5891 19.75C13.0574 19.75 15.8252 20.3377 16.4277 20.439L19.2898 20.9875C19.5551 21.0396 19.9806 21.1555 20.3004 21.1555C20.2941 21.4319 20.2382 21.3984 20.2382 21.7055ZM24.9644 23.9666H21.171C20.8643 23.9666 20.9844 23.4848 20.9844 22.6833C20.9844 21.5526 21.0538 20.0555 22.166 20.0555C23.5541 20.0555 24.7232 20.6385 25.8351 21.2167L25.2755 23.3557C25.2247 23.5599 25.2005 23.9666 24.9644 23.9666ZM26.0216 20.4222C25.4835 20.299 24.0515 19.2611 22.166 19.2611C22.1999 18.8607 24.1969 13.3566 24.3821 12.8221C24.6475 12.0559 25.7163 8.60051 26.1907 8.12168C26.7565 7.55068 27.7835 7.15337 28.5715 7.58872C29.3573 8.02286 28.8723 9.03318 28.6708 9.82546L27.5267 14.3845C27.0096 16.4168 26.5021 18.3957 26.0216 20.4222ZM28.3848 0.744382C28.5439 1.07028 28.7536 2.48417 28.8378 2.98805L29.2554 5.32773C29.0554 5.42202 27.495 5.74626 27.23 5.67303C26.1778 5.38232 26.7451 2.26383 26.9358 1.7649C27.1661 1.16213 27.7232 0.895832 28.3848 0.744382ZM25.8351 3.98326C25.8351 4.75031 25.8738 5.45504 26.378 6.01637C26.7889 6.47376 27.3185 6.52531 28.0117 6.36661V6.67216C26.0348 6.67216 25.4265 7.55145 24.848 9.12438C24.3759 10.4081 23.9396 11.6689 23.4956 12.9899L21.4898 18.7189C20.906 20.4408 20.7401 19.6165 20.5491 20.4222L18.6057 20.0708C17.9291 19.9378 17.2723 19.8211 16.6261 19.694L13.6625 19.1229C13.493 19.0906 12.8199 18.9555 12.6512 18.9555C11.5217 18.9555 10.4125 19.9298 10.4125 21.0333V23.9055C10.4125 24.2803 10.8396 24.7 11.2209 24.7H12.2159C12.2159 25.6991 12.1255 26.4491 12.8221 27.2209C13.1105 27.5405 13.7556 28 14.3303 28H22.0416C22.3273 28 22.6569 27.8504 22.8517 27.7572C23.5291 27.4329 24.156 26.6442 24.156 25.8V24.7C26.1038 24.7 25.6909 24.8923 26.6808 21.0088L29.5664 9.48328C29.766 8.69861 30.0113 8.22417 29.5185 7.45249C29.3264 7.15162 29.132 7.0177 28.8201 6.85551V6.2444C30.2595 5.91487 30.1086 5.62178 29.7792 3.83526C29.6841 3.32003 29.5988 2.83683 29.5219 2.37694C29.2692 0.865833 29.3134 -0.816863 27.0805 0.440489C26.6957 0.657179 26.5153 0.851122 26.3105 1.27268C26.0173 1.87599 25.8351 3.10528 25.8351 3.98326Z" fill="#1D7AFC"/>
<path fill-rule="evenodd" clip-rule="evenodd" d="M13.5219 14.25C13.2389 14.2268 13.1782 14.0751 13.0478 13.8603C12.6524 13.2093 12.9316 12.8385 12.9622 12.4777C13.419 12.7784 13.7085 12.4854 13.7085 12.2944C13.7085 11.894 13.3563 11.8202 13.0601 11.6482L10.9258 10.4455C10.3712 10.1208 10.7763 9.42217 11.1588 9.42217C11.4312 9.42217 13.0412 10.4026 13.4629 10.6412C13.8205 10.8436 14.0124 11.0111 14.3303 11.0111C14.6319 11.0111 14.8639 10.4177 14.3303 10.2777C14.4325 9.90186 15.0502 9.60552 15.5741 9.60552C15.8416 9.60552 15.9112 9.67676 16.1338 9.72773C15.9267 10.1123 15.6893 10.455 15.471 10.8487C15.2316 11.2805 13.5909 13.9589 13.5219 14.25ZM5.37528 15.7166C5.37528 17.4851 5.49967 19.0319 5.49967 20.7278C5.49967 22.1906 5.74729 23.3486 4.79843 24.1331C4.40232 24.4606 3.90554 24.6389 3.1987 24.6389H0.773372V24.0278H3.50964C4.22348 24.0278 4.93997 23.2734 4.93997 22.5611C4.93997 19.2614 4.56236 14.7861 5.28724 11.9634C5.61679 10.6801 6.64272 8.62772 7.98716 8.62772C8.83213 8.62772 9.34743 8.73171 10.1637 9.11662C10.0925 9.37873 10.0059 9.26694 9.97718 9.60552C9.34745 9.59173 7.64144 8.14806 6.24417 10.826C5.64713 11.9703 5.37528 13.9647 5.37528 15.7166ZM4.06934 15.6555C4.06934 17.9216 4.1937 19.971 4.1937 22.1333C4.1937 23.2426 3.67065 23.2979 2.82577 23.2946C1.95535 23.2912 1.08419 23.2944 0.2137 23.2944C0.127899 23.4203 0.0271272 23.4531 0.0271272 23.6C0.0271272 24.3718 -0.136062 25.3722 0.338067 25.3722H3.57182C5.0433 25.3722 6.30809 24.0722 6.30809 22.6222V20.9722C6.30809 19.5709 6.18373 18.4012 6.18373 17C6.18373 15.3236 6.12486 13.5434 6.62623 11.9959C6.84467 11.3216 7.41606 9.97218 8.2981 9.97218C8.71928 9.97218 9.78175 10.3677 9.95899 10.54C10.2793 10.8515 9.87413 10.7385 10.7887 11.2525C11.086 11.4195 12.0189 11.9906 12.2781 12.05C12.2391 12.5112 11.7133 13.5672 12.5734 14.5098C13.6046 15.6401 13.792 15.2348 14.1081 14.7038C14.4557 14.12 17.0666 9.73309 17.0666 9.60552C17.0666 9.01034 15.7475 8.79272 15.3079 8.85016C14.5023 8.95542 13.9991 9.33218 13.6463 9.84994C13.0516 9.54071 11.814 8.67314 11.157 8.62943C10.7105 8.59973 10.7926 8.55111 10.4488 8.40869C8.83267 7.7392 7.50657 7.42161 6.1364 8.76457C4.54824 10.3212 4.06934 13.2748 4.06934 15.6555Z" fill="#1D7AFC"/>
<path fill-rule="evenodd" clip-rule="evenodd" d="M18.3725 10.1555C18.3725 11.0383 19.2849 10.2777 19.5541 10.2777C20.2064 10.2777 20.6735 10.6885 20.6735 11.1944C20.6735 11.7136 20.4247 11.5813 20.4247 12.05C20.4247 12.461 20.8601 11.9824 20.8601 13.2722C20.8601 14.0442 20.2962 15.0376 19.5915 15.4479C19.406 15.5559 19.1494 15.6171 19.0559 15.7771C18.9721 15.9206 18.9708 16.2042 18.8523 16.4325C18.7012 16.7235 18.2259 17.1833 17.8128 17.1833C17.4775 17.1833 17.5816 16.8777 17.0666 16.8777C16.7665 16.8777 16.5468 17.8294 15.8338 17.1727C15.3168 16.6965 15.9066 15.8389 15.201 15.8389C14.4007 15.8389 14.6455 18.1611 16.3825 18.1611C16.707 18.1611 16.8286 18.0724 17.0227 17.9296C17.4153 17.641 17.0029 17.9166 17.9994 17.9166C18.5424 17.9166 19.0618 17.4446 19.3161 17.1328C19.4836 16.9275 19.5845 16.7203 19.6831 16.4545C19.828 16.0638 19.6055 16.3716 20.2645 15.9259C21.1067 15.3563 21.9288 13.759 21.5809 12.4415C21.3325 11.5006 21.2365 12.5863 21.4512 11.404C21.6012 10.5779 20.7509 9.48328 19.6785 9.48328C19.2151 9.48328 18.3725 9.80216 18.3725 10.1555Z" fill="#1D7AFC"/>
<path fill-rule="evenodd" clip-rule="evenodd" d="M17.1288 15.9611C17.3352 15.9611 17.4278 15.7321 17.5019 15.5944C17.5312 15.3723 15.9241 13.8222 15.7606 13.8222C14.4441 13.8222 16.17 15.2318 16.4602 15.518C16.638 15.6934 16.8126 15.9611 17.1288 15.9611Z" fill="#1D7AFC"/>
<path fill-rule="evenodd" clip-rule="evenodd" d="M16.7557 11.6222C16.7557 12.105 17.2523 12.1298 18.1361 12.3434C18.4321 12.4149 18.6439 12.4963 18.9203 12.5584C19.4964 12.6879 19.722 12.0058 19.1215 11.8029C18.7583 11.6801 17.3491 11.3166 17.0666 11.3166C16.9216 11.3166 16.7557 11.4797 16.7557 11.6222Z" fill="#1D7AFC"/>
<path fill-rule="evenodd" clip-rule="evenodd" d="M16.0094 12.8444C16.0094 13.2758 16.4701 13.4124 16.9614 13.6811C17.1478 13.783 17.9882 14.3111 18.1238 14.3111C18.2983 14.3111 18.9817 13.9541 18.1214 13.4579C17.9311 13.3481 17.7614 13.2566 17.5673 13.1468C17.3182 13.0059 16.5892 12.5388 16.3825 12.5388C16.2482 12.5388 16.0094 12.7843 16.0094 12.8444Z" fill="#1D7AFC"/>
</svg>
