<svg width="32" height="32" viewBox="0 0 32 32" fill="none" xmlns="http://www.w3.org/2000/svg">
<path fill-rule="evenodd" clip-rule="evenodd" d="M13 27C13 26.6138 13.1525 26.0809 13.2745 25.7745C14.1568 23.5599 17.6647 23.3375 18.7251 25.7749C19.0723 26.5729 19.0723 27.4271 18.7251 28.2251C17.6974 30.5875 14.2658 30.5181 13.275 28.225C13.1531 27.943 13 27.3634 13 27ZM2 22C2 18.8052 6.46196 17.8714 7.72512 20.7749C8.8062 23.2598 6.34244 25.8282 3.78461 24.7154C2.71657 24.2507 2 23.1392 2 22ZM7.625 18.9375C7.68709 18.705 8.11522 18.1461 8.2758 17.9008L8.93751 16.8125C9.16663 16.8737 9.31357 17.2606 9.54276 17.6448C9.73323 17.964 9.88419 18.2377 10.0739 18.5511L13.3125 24C13.1774 24.2017 13.016 24.2988 12.8644 24.4894C12.7414 24.6441 12.5473 24.9218 12.5 25.125C12.1936 25.0995 11.7865 24.8111 11.551 24.699L8.81251 23.3125C8.85667 22.7818 9 23.1256 9 21.75C9 21.1965 8.76172 20.4807 8.56079 20.1267C8.08195 19.283 7.85615 19.2827 7.625 18.9375ZM18.6875 24C17.7849 23.3956 17.7555 23.2925 16.5 23V18.5C16.9668 18.3913 17.3032 18.3165 17.6886 18.1261C18.0219 17.9614 18.3803 17.7713 18.642 17.517C18.9531 17.2148 19.1239 17.0487 19.3635 16.676C19.7011 16.1511 19.7034 15.9201 19.875 15.5625L22.9433 15.9941C23.0652 16.115 22.9652 16.7266 23.2487 17.4388C23.5245 18.1314 23.6017 18.046 23.875 18.5625C23.5906 18.753 21.1789 21.3532 20.6094 21.9219L18.6875 24ZM24 16C24 12.8178 28.4575 11.8611 29.7251 14.7749C30.8062 17.2598 28.3424 19.8282 25.7846 18.7154C25.131 18.431 24.555 17.873 24.275 17.225C24.1531 16.943 24 16.3634 24 16ZM13 14.5C13 13.404 13.7302 12.2221 14.7299 11.7924C17.3885 10.6493 19.7938 13.2687 18.7251 15.7251C18.1081 17.1434 16.3822 17.9104 14.7846 17.2154C13.7166 16.7507 13 15.6392 13 14.5ZM12 14.25C12 15.4939 12.2424 16.4044 13.1405 17.297C13.6952 17.8484 14.4015 18.2732 15.2011 18.4239C15.3928 18.46 15.5 18.4127 15.5 18.625V22.875C15.5 23.125 15.175 23.058 14.8967 23.1467C14.0213 23.4256 14.2427 23.5439 13.9109 22.9641L11.9257 19.6368C11.5315 18.9838 11.183 18.3757 10.7854 17.7146C10.5822 17.3766 10.4272 17.1152 10.2227 16.7773C10.0344 16.466 9.86033 16.0833 9.625 15.8125C9.78603 15.572 9.91445 15.3468 10.0876 15.0876L11.5 12.875C11.7174 12.9257 11.9992 13.0879 12.1875 13.1875C12.1591 13.5287 12 13.6642 12 14.25ZM7.5 12.1875C7.61848 12.0106 7.76295 11.8921 7.92242 11.7349C8.12335 11.5369 8.16197 11.4748 8.31251 11.25L10.5625 12.375C10.4718 12.7645 9.2173 14.3538 9.125 14.75C8.87911 14.6843 8.98746 14.7228 8.87129 14.5037L8.29276 13.5197C8.0227 13.067 7.73644 12.6344 7.5 12.1875ZM12.6875 12.25C12.5101 12.1561 12.3395 12.05 12.125 12C12.1847 11.7762 13.0402 10.5513 13.1846 10.3096C13.5293 9.73204 13.9348 9.22075 14.25 8.625C14.9711 8.793 14.6527 9 16.25 9C17.1275 9 17.9071 8.54269 18.4375 8.18751L23.828 13.547C23.679 13.7619 23.5471 13.95 23.4275 14.1775C23.2954 14.4287 23.2395 14.6988 23.125 14.9375L20.644 14.606C19.3911 14.4305 20.5161 14.7804 19.6442 12.7933C19.1275 11.6154 17.6668 10.5 16.25 10.5H15.75C14.3968 10.5 13.2354 11.4317 12.6875 12.25ZM2 9C2 8.6138 2.1525 8.08087 2.27455 7.77455C2.50895 7.18612 3.18612 6.50895 3.77455 6.27455C4.6224 5.93678 5.3742 5.90734 6.225 6.27499C8.54427 7.27714 8.56279 10.7081 6.22512 11.7251C4.6606 12.4058 2.89435 11.6584 2.275 10.225C2.15314 9.94304 2 9.3634 2 9ZM11.1875 11.5L8.81275 10.312C8.85787 9.76335 9 10.1492 9 8.68751C9 8.37337 8.9438 8.40765 8.93751 8.125C9.24875 7.97567 12.2969 6.87954 12.5 6.875C12.5474 7.07836 12.7413 7.35574 12.8644 7.51058C13.0308 7.7199 13.228 7.84289 13.375 8.06251L11.1875 11.5ZM13 5C13 2.49638 16.1043 0.960003 18.0803 2.85719C19.2619 3.99157 19.2889 5.93475 18.1118 7.11184C16.2068 9.01689 13 7.57515 13 5ZM12 4.75L12.0625 5.875C11.8416 5.981 11.4511 6.11026 11.1952 6.19521C10.7426 6.34544 8.80261 7.11827 8.5 7.125C8.29966 6.26512 6.64822 5 5.25 5H4.75C2.86264 5 1 6.86264 1 8.75V9.25C1 11.1374 2.86264 13 4.75 13C6.1848 13 5.69039 12.9052 6.625 12.6875L7.95724 14.9802C8.04973 15.1353 8.10567 15.2283 8.19072 15.3718L8.33304 15.6045C8.34034 15.6155 8.35081 15.6316 8.35797 15.642C8.44498 15.7693 8.37571 15.6789 8.43751 15.75L6.75 18.375C6.02889 18.207 6.34734 18 4.75 18C2.86264 18 1 19.8626 1 21.75V22.25C1 24.1374 2.86264 26 4.75 26H5.25C6.60045 26 7.76632 25.0656 8.31251 24.25L10.1875 25.1875C10.8077 25.4976 11.4515 25.8017 12.0625 26.125L12 27.25C12 29.1374 13.8626 31 15.75 31H16.25C18.1374 31 20 29.1374 20 27.25C20 25.352 19.5028 25.2984 19.375 24.75L21.9844 21.9844C22.2167 21.7521 22.4143 21.5659 22.6419 21.3294C22.7902 21.1753 22.812 21.1041 22.9523 20.9523L24.625 19.25C25.776 19.859 25.8261 20 27.25 20C29.1374 20 31 18.1374 31 16.25V15.75C31 13.8626 29.1374 12 27.25 12C25.9946 12 25.586 12.1271 24.5625 12.8125L19.172 7.45303C21.4164 4.14763 18.705 1 16.25 1H15.75C13.8626 1 12 2.86264 12 4.75Z" fill="#1D7AFC" stroke="#1D7AFC" stroke-width="0.2"/>
</svg>
