<svg width="32" height="32" viewBox="0 0 32 32" fill="none" xmlns="http://www.w3.org/2000/svg">
<path d="M16.0364 0H15.9636C7.14712 0 0 7.14713 0 15.9636V16.0364C0 24.8529 7.14712 32 15.9636 32H16.0364C24.8529 32 32 24.8529 32 16.0364V15.9636C32 7.14713 24.8529 0 16.0364 0Z" fill="#00B0F2"/>
<path d="M6.05991 15.4549C6.10475 15.4325 6.14962 15.4112 6.19334 15.391C6.95346 15.039 7.72366 14.7094 8.49275 14.3798C8.53423 14.3798 8.60372 14.3316 8.64296 14.3159C8.70238 14.2901 8.76181 14.2654 8.82123 14.2397L9.16318 14.0928C9.39188 13.9952 9.61945 13.8977 9.84816 13.8002C10.3045 13.6051 10.7607 13.41 11.217 13.2138C12.1296 12.8237 13.0434 12.4324 13.9559 12.0423C14.8685 11.6521 15.7822 11.2608 16.6948 10.8707C17.6074 10.4806 18.5211 10.0893 19.4337 9.69914C20.3463 9.30899 21.26 8.91772 22.1726 8.52757C22.3755 8.44012 22.5953 8.31007 22.8128 8.27195C22.9955 8.23944 23.1737 8.17666 23.3576 8.14191C23.7063 8.07576 24.0908 8.04885 24.4249 8.19348C24.5404 8.24393 24.6469 8.31456 24.7355 8.40313C25.1592 8.82242 25.0998 9.51079 25.0101 10.1005C24.3857 14.2105 23.7612 18.3216 23.1356 22.4316C23.0504 22.9956 22.9338 23.6144 22.4887 23.9709C22.112 24.2725 21.5761 24.3061 21.1109 24.1783C20.6456 24.0494 20.2353 23.7792 19.8328 23.5135C18.1635 22.4081 16.493 21.3027 14.8237 20.1973C14.4268 19.9349 13.9851 19.5919 13.9896 19.1154C13.9918 18.8284 14.1633 18.5728 14.3382 18.3452C15.789 16.4527 17.8821 15.1522 19.4393 13.3472C19.6591 13.0928 19.8317 12.6331 19.5301 12.4862C19.3508 12.3988 19.1445 12.5176 18.9808 12.6309C16.9224 14.0603 14.8652 15.4908 12.8068 16.9202C12.1353 17.3866 11.4312 17.8665 10.6217 17.9808C9.89751 18.084 9.16879 17.8822 8.46809 17.6759C7.88062 17.5032 7.29426 17.3261 6.71016 17.1433C6.39961 17.0469 6.07897 16.9427 5.83905 16.724C5.59913 16.5054 5.46125 16.1377 5.60588 15.8462C5.69669 15.6635 5.87271 15.548 6.05769 15.4538L6.05991 15.4549Z" fill="#FEFFFC"/>
</svg>
