<svg width="32" height="32" viewBox="0 0 32 32" fill="none" xmlns="http://www.w3.org/2000/svg">
<path d="M16.0364 0.000976562H15.9636C7.14713 0.000976562 0 7.14811 0 15.9645V16.0374C0 24.8538 7.14713 32.001 15.9636 32.001H16.0364C24.8529 32.001 32 24.8538 32 16.0374V15.9645C32 7.14811 24.8529 0.000976562 16.0364 0.000976562Z" fill="black"/>
<path d="M24.1148 12.7089V15.7303C23.5868 15.6787 22.9007 15.5588 22.1417 15.2807C21.1506 14.9175 20.4129 14.4208 19.9297 14.0363V20.143L19.9174 20.124C19.9252 20.245 19.9297 20.3684 19.9297 20.4928C19.9297 23.5254 17.4621 25.9941 14.4284 25.9941C11.3947 25.9941 8.92709 23.5254 8.92709 20.4928C8.92709 17.4602 11.3947 14.9904 14.4284 14.9904C14.7255 14.9904 15.017 15.0139 15.3018 15.0599V18.0376C15.0282 17.94 14.7345 17.8873 14.4284 17.8873C12.9923 17.8873 11.8229 19.0555 11.8229 20.4928C11.8229 21.9301 12.9923 23.0983 14.4284 23.0983C15.8646 23.0983 17.0339 21.929 17.0339 20.4928C17.0339 20.439 17.0328 20.3852 17.0294 20.3314V8.46436H20.0486C20.0598 8.71997 20.0699 8.97783 20.0811 9.23344C20.1013 9.73682 20.2806 10.22 20.5934 10.6158C20.96 11.081 21.5015 11.6214 22.2616 12.053C22.9735 12.4566 23.6417 12.6293 24.1148 12.7111V12.7089Z" fill="#FF004F"/>
<path d="M23.0784 10.2556V13.277C22.5503 13.2254 21.8642 13.1055 21.1052 12.8274C20.1141 12.4642 19.3764 11.9675 18.8932 11.583V17.6897L18.8809 17.6706C18.8888 17.7917 18.8932 17.915 18.8932 18.0395C18.8932 21.0721 16.4257 23.5408 13.3919 23.5408C10.3582 23.5408 7.89062 21.0721 7.89062 18.0395C7.89062 15.0069 10.3582 12.537 13.3919 12.537C13.689 12.537 13.9805 12.5606 14.2653 12.6066V15.5842C13.9917 15.4867 13.698 15.434 13.3919 15.434C11.9558 15.434 10.7865 16.6022 10.7865 18.0395C10.7865 19.4768 11.9558 20.645 13.3919 20.645C14.8281 20.645 15.9974 19.4756 15.9974 18.0395C15.9974 17.9857 15.9963 17.9319 15.9929 17.878V6.00879H19.0121C19.0233 6.2644 19.0334 6.52226 19.0446 6.77787C19.0648 7.28126 19.2442 7.76446 19.5569 8.16021C19.9236 8.62547 20.4651 9.16585 21.2252 9.59748C21.9371 9.99996 22.6053 10.1737 23.0784 10.2556Z" fill="#00F7EF"/>
<path d="M23.7398 11.5761V14.5975C23.2118 14.5459 22.5257 14.426 21.7667 14.1479C20.7756 13.7847 20.0379 13.288 19.5547 12.9035V19.0102L19.5424 18.9911C19.5502 19.1122 19.5547 19.2355 19.5547 19.36C19.5547 22.3926 17.0871 24.8613 14.0534 24.8613C11.0197 24.8613 8.55209 22.3926 8.55209 19.36C8.55209 16.3274 11.0197 13.8576 14.0534 13.8576C14.3505 13.8576 14.642 13.8811 14.9268 13.9271V16.9047C14.6532 16.8072 14.3595 16.7545 14.0534 16.7545C12.6173 16.7545 11.4479 17.9227 11.4479 19.36C11.4479 20.7973 12.6173 21.9655 14.0534 21.9655C15.4896 21.9655 16.6589 20.7961 16.6589 19.36C16.6589 19.3062 16.6578 19.2524 16.6544 19.1986V7.33154H19.6736C19.6848 7.58716 19.6949 7.84501 19.7061 8.10063C19.7263 8.60401 19.9056 9.08721 20.2184 9.48296C20.585 9.94823 21.1265 10.4886 21.8866 10.9202C22.5985 11.3227 23.2667 11.4965 23.7398 11.5783V11.5761Z" fill="white"/>
</svg>
