<svg width="30" height="28" viewBox="0 0 30 28" fill="none" xmlns="http://www.w3.org/2000/svg">
<path fill-rule="evenodd" clip-rule="evenodd" d="M18.6988 21.9896C18.6988 21.3424 18.7641 20.9208 19.1439 20.3984C20.6226 18.3641 23.4487 19.6728 23.4487 21.6788V21.9896C23.4487 23.1641 22.3601 24.2896 21.224 24.2896H20.9234C19.7874 24.2896 18.6988 23.1641 18.6988 21.9896ZM9.0187 24.2896C7.53372 24.2896 6.49348 23.2592 6.49348 22.0517C6.49348 21.2973 6.58984 20.6268 7.19904 20.0461C8.11836 19.1699 9.58252 19.1176 10.5075 20.0775C12.1786 21.8118 10.7336 24.2896 9.0187 24.2896ZM23.8094 19.7517L24.2763 19.2398L25.8684 20.8554C25.6487 21.1871 25.5146 21.47 25.4251 21.9195C25.0897 23.6038 25.8246 22.8589 24.8766 23.8389L22.7152 26.0799C22.2575 26.5716 21.7565 25.975 20.5024 26.5895C20.3377 26.6702 20.3178 26.7274 20.1418 26.776L18.5638 25.1751L19.0454 24.6479C21.7228 26.5263 24.4708 24.2913 24.4708 21.8653C24.4708 20.9048 24.1249 20.3682 23.8094 19.7517ZM5.47136 21.8653C5.47136 23.7384 7.01807 25.3464 8.83836 25.3464C9.76733 25.3464 10.2863 24.9887 10.8826 24.6626L11.3777 25.1453L9.81513 26.7913C9.25857 26.3961 8.82691 26.3198 8.15046 26.24C7.17558 26.125 7.9512 26.8224 6.38823 25.2064L4.76182 23.5313C4.22489 22.997 5.00743 22.6661 4.08855 20.8707L5.63696 19.2392L6.1469 19.7372C5.77413 20.3055 5.47136 20.9458 5.47136 21.8653ZM17.6767 21.8031C17.6767 22.6285 18.0166 23.4203 18.3381 23.9166L17.8712 24.4285L16.308 22.8452C17.4335 20.5904 16.3282 20.7708 17.0294 20.0771L19.3148 17.7157C19.6453 17.367 19.5124 17.3793 20.141 17.3888C21.0675 17.4027 21.4093 17.2186 22.0057 16.8923L23.5836 18.4933L23.1021 19.0204C22.4652 18.6582 21.916 18.3221 21.1038 18.3221C19.2339 18.3221 17.6767 19.9544 17.6767 21.8031ZM6.85427 19.0058L6.35905 18.5232L7.89058 16.907C9.71707 17.8815 10.0127 17.2015 10.3864 17.4632C10.6242 17.6298 12.442 19.7469 13.1673 20.2491C13.1673 21.6598 13.1623 21.8481 13.6483 22.7977L12.0998 24.4292L11.59 23.9313C11.7392 23.6526 11.8789 23.4587 12.0008 23.1456C13.1974 20.0717 9.86431 16.9218 6.85427 19.0058ZM12.9415 18.6481L11.951 17.5903L13.2736 16.2562L14.2642 17.2502L12.9415 18.6481ZM16.6694 14.7941L15.678 13.7993L17.722 11.6554L18.6842 12.6804L16.6694 14.7941ZM12.2191 11.6849L17.9923 17.6228L17.0299 18.6479L11.2581 12.7121L12.2191 11.6849ZM16.2938 8.50047C16.2938 8.05776 17.0334 7.45602 17.301 7.17954L19.6157 4.78634C19.9137 4.47818 20.5064 3.79515 20.8032 3.58964L26.5001 9.51055C26.3412 9.76249 23.531 12.6112 23.0729 13.0849C21.6848 14.5201 21.8825 14.5784 20.2759 12.8996C20.057 12.6709 20.015 12.5472 19.6169 12.1512L18.5623 11.1281C18.3362 10.8851 18.3267 10.802 17.9334 10.4107C17.6265 10.1053 16.2938 9.04499 16.2938 8.50047ZM8.177 14.1572C7.72068 14.1572 6.14718 12.3419 5.75751 11.9344C5.54271 11.7098 5.37409 11.6045 5.15549 11.3757C4.77364 10.9764 3.60188 9.82705 3.42717 9.55725L9.15376 3.60495C9.39783 3.76952 12.1528 6.67452 12.6112 7.14844C13.9993 8.58356 14.0558 8.37915 12.432 10.0402C12.283 10.1926 12.2179 10.216 12.0706 10.3502C11.9436 10.4658 11.8285 10.5921 11.7081 10.7215L10.7185 11.8118C10.4835 12.0457 10.4031 12.0554 10.0246 12.4621C9.87432 12.6235 9.84667 12.7072 9.69634 12.8686C9.4201 13.1653 8.5963 14.1572 8.177 14.1572ZM21.5097 2.85916L22.1116 2.20733L27.8527 8.11207L27.2509 8.7639L21.5097 2.85916ZM2.66046 8.82676L2.03109 8.14092L7.80142 2.20676L8.43177 2.8289L2.66046 8.82676ZM22.8325 1.4916C23.5258 0.428643 24.2051 1.48127 24.9969 2.29981C25.4725 2.79158 25.9041 3.23779 26.3797 3.72956L28.424 5.84301C28.8348 6.2675 29.3864 6.8089 28.5592 7.3816L22.8325 1.4916ZM1.39782 7.39701C0.393959 6.69689 1.3851 6.04281 2.32988 5.06602L4.58457 2.73501C4.85925 2.45271 5.02978 2.21146 5.30603 1.92682C5.77432 1.44424 6.47858 0.524863 7.09477 1.47619L1.39782 7.39701ZM15.3318 8.31394C15.3318 9.16641 15.4035 9.29044 16.0383 9.94575C16.3012 10.2171 16.7454 10.7379 17.0154 10.9248C16.8066 11.247 15.2448 12.8071 14.911 13.0382L12.9124 10.9397C13.1968 10.7379 13.641 10.2171 13.9039 9.94575C14.5387 9.29044 14.6103 9.16641 14.6103 8.31394C14.6103 7.5141 13.5219 6.59811 12.9118 5.96733L7.91876 0.810752C7.26985 0.24989 7.22258 0.0464374 6.31316 0.0464374C5.55634 0.0464374 4.85681 0.961573 4.43423 1.39848L1.24765 4.69301C0.588284 5.37471 0 5.7729 0 6.88426C0 7.72471 1.54272 9.06979 2.23971 9.7903C3.00633 10.5829 6.81864 14.6592 7.39274 14.9679C8.03901 15.3156 8.73146 15.2106 9.24249 14.7615C9.47927 14.5535 10.3789 13.6319 10.5219 13.4112L12.5517 15.4775L11.2292 16.8777C11.03 16.7446 10.8694 16.4177 10.6268 16.3471C10.2359 16.2333 9.30556 16.7061 8.31361 15.943C7.73997 15.5015 7.70179 15.6742 6.98952 16.4106L3.0544 20.424C2.5463 21.1001 3.60752 21.3416 3.60752 22.7355C3.60752 23.6229 3.13477 23.3347 4.10355 24.3362C4.47741 24.7227 6.79745 27.1941 7.05142 27.3225C7.45337 27.5255 8.33898 26.8741 9.44746 27.7626C10.0704 28.2619 10.2411 27.7812 11.2283 26.7605L14.2345 23.6524C14.7056 23.1653 15.0405 22.9875 14.5932 22.3802C14.484 22.2319 14.4411 22.158 14.3693 21.9902C13.8785 20.8426 14.329 20.4145 14.2281 20.0268C14.1746 19.8213 13.8379 19.5786 13.7084 19.3788L14.9852 18.0257C15.4944 18.3736 15.7705 19.0165 16.2938 19.3788C16.1509 19.5994 15.8348 19.7655 15.7664 20.0163C15.6438 20.4669 16.0527 21.0458 15.5739 22.0534C14.9863 23.2901 14.4561 22.3585 18.1727 26.2011C20.2085 28.3058 19.8163 28.2356 20.7295 27.6322C21.7409 26.964 22.5122 27.5136 22.8907 27.3224C23.1032 27.2153 26.2783 23.9326 26.3822 23.7128C26.5785 23.2972 25.9485 22.3816 26.8078 21.2355C27.3593 20.5002 26.6523 20.393 25.8626 19.3695L22.8625 16.2552C22.0152 15.3789 22.0974 15.6935 21.266 16.1276C20.2288 16.6695 19.7396 16.1729 19.341 16.308C19.0586 16.4036 18.9269 16.6722 18.6988 16.8302L17.4215 15.5399L17.7698 15.1237C17.8044 15.0812 17.7895 15.0981 17.8241 15.0555C18.2249 14.5606 19.1297 13.7671 19.3602 13.4112C20.3565 14.101 20.3851 15.1518 21.9455 15.1518C22.7231 15.1518 23.6281 14.0027 24.2453 13.3646C24.9226 12.6643 29.4073 8.12081 29.737 7.60461C30.5578 6.3192 29.2597 5.27727 28.5442 4.53767L24.8766 0.745713C23.1678 -1.02688 22.1157 0.70981 20.5477 2.33091L16.88 6.12278C16.4255 6.59266 15.3318 7.50151 15.3318 8.31394Z" fill="#1D7AFC"/>
<path fill-rule="evenodd" clip-rule="evenodd" d="M19.8411 9.05992C19.8411 8.26009 20.4228 7.56804 21.1038 7.56804C21.5495 7.56804 21.8874 7.58805 22.2567 7.93013C22.7947 8.4284 22.8485 9.50462 22.2341 10.1042C21.3545 10.9629 19.8411 10.2763 19.8411 9.05992ZM18.8792 8.68693C18.8792 9.5502 18.9259 10.223 19.6454 10.8786C20.0412 11.2392 20.6586 11.5364 21.3283 11.5122C22.6578 11.4638 23.6892 10.3668 23.6892 8.99781C23.6892 6.38393 20.3409 5.59491 19.1595 7.79565C19.0466 8.00597 18.8792 8.39542 18.8792 8.68693Z" fill="#1D7AFC"/>
<path fill-rule="evenodd" clip-rule="evenodd" d="M8.65801 10.4897C7.98021 10.4897 7.27512 9.87903 7.27512 9.18426C7.27512 8.66428 7.30884 8.21422 7.75295 7.87562C8.83009 7.05455 10.101 7.86886 10.101 8.99781C10.101 9.81456 9.44345 10.4897 8.65801 10.4897ZM6.25299 8.87348C6.25299 10.3841 7.30794 11.4842 8.47759 11.4842C9.20031 11.4842 9.80786 11.3866 10.3882 10.7866C11.7431 9.38584 11.0782 6.51127 8.53776 6.51127C7.37865 6.51127 6.25299 7.67508 6.25299 8.87348Z" fill="#1D7AFC"/>
</svg>
