<svg width="92" height="92" viewBox="0 0 92 92" fill="none" xmlns="http://www.w3.org/2000/svg">
<path d="M82.6322 41.1711L77.4186 35.116C76.4219 33.9663 75.6168 31.8201 75.6168 30.2872V23.7722C75.6168 19.7098 72.2816 16.3757 68.218 16.3757H61.7009C60.2058 16.3757 58.0207 15.5709 56.8706 14.5745L50.8136 9.36242C48.1684 7.10132 43.8365 7.10132 41.153 9.36242L35.1343 14.6128C33.9842 15.5709 31.7991 16.3757 30.304 16.3757H23.6719C19.6083 16.3757 16.2731 19.7098 16.2731 23.7722V30.3255C16.2731 31.8201 15.4681 33.9663 14.5097 35.116L9.33435 41.2095C7.11088 43.8538 7.11088 48.1461 9.33435 50.7904L14.5097 56.8839C15.4681 58.0336 16.2731 60.1797 16.2731 61.6744V68.2277C16.2731 72.29 19.6083 75.6242 23.6719 75.6242H30.304C31.7991 75.6242 33.9842 76.429 35.1343 77.4254L41.1913 82.6374C43.8365 84.8985 48.1684 84.8985 50.8519 82.6374L56.909 77.4254C58.059 76.429 60.2058 75.6242 61.7393 75.6242H68.2563C72.3199 75.6242 75.6551 72.29 75.6551 68.2277V61.7127C75.6551 60.218 76.4602 58.0336 77.4569 56.8839L82.6706 50.8287C84.8941 48.1844 84.8941 43.8155 82.6322 41.1711ZM61.931 38.7567L43.4148 57.2671C42.8781 57.8036 42.1497 58.1102 41.383 58.1102C40.6163 58.1102 39.8879 57.8036 39.3512 57.2671L30.074 47.9928C28.9622 46.8814 28.9622 45.0418 30.074 43.9305C31.1857 42.8191 33.0258 42.8191 34.1376 43.9305L41.383 51.1736L57.8674 34.6944C58.9791 33.583 60.8192 33.583 61.931 34.6944C63.0427 35.8058 63.0427 37.6454 61.931 38.7567Z" fill="#22A06B"/>
</svg>
