<svg width="32" height="32" viewBox="0 0 32 32" fill="none" xmlns="http://www.w3.org/2000/svg">
<path d="M32 16C32 7.16344 24.8366 0 16 0C7.16345 0 0 7.16344 0 16C0 24.8366 7.16345 32 16 32C24.8366 32 32 24.8366 32 16Z" fill="#FF0209"/>
<path d="M22.7921 23.0841C22.3154 23.1358 21.8274 23.1448 21.3597 23.1437C17.7113 23.1403 14.0629 23.137 10.4157 23.1347C9.26778 23.1347 8.01755 23.0976 7.13047 22.3679C6.13096 21.5438 5.92297 20.1148 5.84202 18.8219C5.72959 17.05 5.72059 15.2724 5.81279 13.4994C5.86338 12.5258 5.9522 11.5285 6.37156 10.647C6.67288 10.0141 7.17544 9.44515 7.81855 9.14609C8.56621 8.79868 9.34873 8.86051 10.1537 8.85939C12.0808 8.85714 14.0079 8.85602 15.9349 8.85377C17.9384 8.85152 19.9431 8.85039 21.9466 8.84814C22.8933 8.84814 23.9096 8.86726 24.682 9.41479C25.6793 10.1209 25.9502 11.4644 26.075 12.6798C26.3055 14.9183 26.3089 17.1804 26.084 19.4189C25.9907 20.3419 25.8356 21.3178 25.2273 22.0183C24.6247 22.7131 23.7309 22.9807 22.7932 23.083L22.7921 23.0841Z" fill="white"/>
<path d="M19.26 15.9975L13.8229 12.8584V19.1365L19.26 15.9975Z" fill="#FF0209"/>
</svg>
